<svg width="532" height="528" viewBox="0 0 532 528" fill="none" xmlns="http://www.w3.org/2000/svg">
<path d="M141.12 158.348L148.401 175.149C151.202 181.868 157.921 185.79 164.639 185.79C166.878 185.79 169.12 185.231 171.358 184.669C180.319 180.747 184.237 170.669 180.877 161.708L173.596 144.907C167.995 132.028 170.237 116.907 179.198 106.266C198.8 82.1878 200.479 48.5858 184.237 22.2658L175.839 8.26582C170.799 -0.132584 160.159 -2.37518 151.761 2.66422C143.362 7.70332 141.12 18.3442 146.159 26.7422L154.557 40.7422C162.956 54.1832 161.839 72.1012 151.757 84.4222C134.398 105.149 130.48 133.707 141.12 158.348L141.12 158.348Z" fill="#70966C"/>
<path d="M241.92 158.348L249.201 175.149C252.002 181.868 258.721 185.79 265.439 185.79C267.677 185.79 269.92 185.231 272.158 184.669C281.119 180.747 285.037 170.669 281.677 161.708L274.396 144.907C268.795 132.028 271.037 116.907 279.998 106.266C299.6 82.1878 301.279 48.5858 285.037 22.2658L276.639 8.26582C271.6 -0.132584 260.959 -2.37518 252.561 2.66422C244.162 7.70332 241.92 18.3442 246.959 26.7422L255.357 40.7422C263.756 54.1832 262.639 72.1012 252.557 84.4222C235.76 105.149 231.28 133.707 241.92 158.348L241.92 158.348Z" fill="#70966C"/>
<path d="M343.28 158.348L350.561 175.149C353.362 181.868 360.081 185.79 366.799 185.79C369.037 185.79 371.28 185.231 373.518 184.669C382.479 180.747 386.397 170.669 383.038 161.708L375.756 144.907C370.155 132.028 372.397 116.907 381.358 106.266C400.96 82.1878 402.639 48.5858 386.397 22.2658L377.999 8.26582C372.959 -0.132584 362.319 -2.37518 353.921 2.66422C345.522 7.70332 343.28 18.3442 348.319 26.7422L356.717 40.7422C365.116 54.1832 363.999 72.1012 353.917 84.4222C336.558 105.149 332.64 133.707 343.28 158.348L343.28 158.348Z" fill="#70966C"/>
<path d="M266 224.988C203.84 224.988 0 229.468 0 286.027C0 288.265 0.558591 289.949 1.1211 291.629L42.0001 406.429C56.0001 445.628 82.8791 480.351 119.84 506.109C139.442 520.109 167.442 527.949 197.68 527.949H334.32C364.558 527.949 392.558 520.109 412.16 506.668C449.68 480.348 476.558 446.188 490.558 406.988L530.878 292.748C531.437 291.068 531.999 288.826 531.999 287.146C531.999 229.466 328.159 224.986 265.999 224.986L266 224.988ZM266 312.347C142.24 312.347 66.08 297.23 41.44 286.027C66.081 275.386 142.8 259.707 266 259.707C389.2 259.707 465.92 274.828 490.56 286.027C465.923 297.23 389.76 312.347 266 312.347V312.347Z" fill="#70966C"/>
</svg>
