<svg width="530" height="532" viewBox="0 0 530 532" fill="none" xmlns="http://www.w3.org/2000/svg">
<path d="M503 253.12C488.441 250.882 475 261.518 472.762 275.518C467.16 318.077 447.563 356.717 417.321 386.958C355.719 448.56 263.321 460.317 189.961 422.798L153.563 463.677C192.204 486.075 235.883 497.279 279.003 497.279C342.843 497.279 406.683 473.201 454.843 424.478C493.484 385.837 517.562 337.119 525.402 282.798C527.64 268.798 517.558 255.357 503 253.118V253.12Z" fill="#70966C"/>
<path d="M503 29.6799C488.441 29.6799 476.68 41.4419 476.68 56.5589V94.0789L455.399 72.8019C358.52 -24.077 200.599 -24.077 103.159 72.8019C72.921 103.04 52.198 139.443 40.999 177.522C51.077 170.241 63.397 166.323 76.28 166.323H102.042C111.562 146.163 124.44 127.124 141.241 110.323C217.401 34.1629 341.721 34.1629 417.881 110.323L438.6 131.604H401.08C386.521 131.604 374.201 143.366 374.201 157.924C374.201 172.482 385.963 184.803 401.08 184.803H503C517.559 184.803 529.879 173.041 529.879 157.924L529.875 56.0039C529.875 41.4449 517.555 29.6839 502.996 29.6839L503 29.6799Z" fill="#70966C"/>
<path d="M278.44 110.32C263.881 110.32 251.561 122.082 251.561 137.199V248.639C251.561 260.401 259.401 271.037 271.163 274.401L352.925 297.362C355.163 297.921 357.964 298.483 360.206 298.483C371.968 298.483 382.604 290.643 385.968 278.881C389.89 264.881 381.488 250.322 367.488 245.842L304.769 228.483L304.761 137.198C304.761 122.639 292.999 110.319 278.441 110.319L278.44 110.32Z" fill="#70966C"/>
<path d="M171.48 335.44H126.679L182.679 235.76C188.281 226.24 180.999 213.92 169.8 213.92H76.28C70.1198 213.92 64.518 217.842 62.839 223.439L1.23702 388.079C-2.12238 397.599 4.59642 407.681 14.678 407.681H47.158L12.439 515.761C8.51712 528.64 24.201 537.601 33.158 527.523L182.118 359.523C190.516 350.559 183.798 335.441 171.477 335.441L171.48 335.44Z" fill="#70966C"/>
</svg>
