<svg width="516" height="526" viewBox="0 0 516 526" fill="none" xmlns="http://www.w3.org/2000/svg">
<path fill-rule="evenodd" clip-rule="evenodd" d="M175.5 385.5C175.5 366.164 159.836 350.5 140.5 350.5H35.5C16.164 350.5 0.5 366.164 0.5 385.5V490.5C0.5 509.836 16.164 525.5 35.5 525.5H140.5C159.836 525.5 175.5 509.836 175.5 490.5V385.5ZM228.699 455.535C228.191 455.535 227.683 455.519 227.16 455.519C217.5 455.308 209.504 462.992 209.293 472.632C209.101 482.293 216.766 490.308 226.426 490.499C226.969 490.515 227.512 490.515 228.055 490.535C237.715 490.71 245.696 483.027 245.887 473.367C246.063 463.706 238.363 455.726 228.703 455.535L228.699 455.535ZM35.499 385.5H140.499V490.5H35.499V385.5ZM296.019 452.473C286.445 453.7 279.656 462.465 280.882 472.055C282.109 481.629 290.874 488.418 300.464 487.192C314.148 485.442 326.312 483.079 337.093 480.208C346.437 477.739 352.003 468.149 349.519 458.806C347.035 449.478 337.445 443.915 328.117 446.38C318.668 448.899 308.008 450.946 296.023 452.469L296.019 452.473ZM377.007 418.489C371.616 426.505 373.734 437.387 381.749 442.778C389.765 448.184 400.647 446.051 406.038 438.036C415.472 424.02 418.69 408.673 417.116 393.2C416.136 383.59 407.526 376.591 397.917 377.571C388.308 378.551 381.308 387.145 382.288 396.751C383.058 404.259 381.569 411.696 377.003 418.485L377.007 418.489ZM70.497 438.001H105.497C115.157 438.001 122.997 430.161 122.997 420.501C122.997 410.841 115.157 403.001 105.497 403.001H70.497C60.8368 403.001 52.997 410.841 52.997 420.501C52.997 430.161 60.8368 438.001 70.497 438.001ZM353.117 349.942C360.539 356.118 371.578 355.122 377.758 347.704C383.953 340.282 382.957 329.243 375.535 323.063C365.156 314.399 353.504 307.208 341.445 302.098C332.539 298.336 322.265 302.5 318.504 311.406C314.743 320.297 318.907 330.57 327.813 334.332C336.774 338.129 345.399 343.52 353.118 349.941L353.117 349.942ZM264.621 329.028C274.262 329.587 282.559 322.219 283.117 312.594C283.695 302.953 276.328 294.656 266.683 294.078C255.992 293.449 245.261 291.996 234.902 289.652C225.488 287.5 216.105 293.398 213.953 302.828C211.816 312.242 217.715 321.625 227.129 323.777C239.344 326.543 252.016 328.273 264.613 329.027L264.621 329.028ZM156.851 288.165C163.675 294.989 174.773 294.989 181.597 288.165C188.421 281.321 188.421 270.243 181.581 263.419C175.316 257.153 170.503 249.751 167.808 241.056C164.937 231.833 155.12 226.689 145.898 229.54C136.676 232.411 131.511 242.228 134.382 251.45C138.808 265.712 146.581 277.911 156.851 288.165H156.851ZM134.015 172.075C131.234 181.313 136.499 191.079 145.757 193.864C154.995 196.63 164.761 191.38 167.546 182.122C170.417 172.532 174.898 164.431 180.585 157.587C186.745 150.165 185.729 139.126 178.292 132.946C170.854 126.786 159.812 127.801 153.651 135.239C145.128 145.493 138.339 157.657 134.014 172.075H134.015ZM448.995 0.505005C412.386 0.505005 382.495 30.657 382.495 68.001C382.495 90.067 394.729 131.63 412.698 154.575C423.303 168.122 436.218 175.505 448.995 175.505C461.753 175.505 474.667 168.118 485.272 154.575C503.245 131.634 515.495 90.071 515.495 68.001C515.495 30.657 485.589 0.505005 448.995 0.505005ZM448.995 35.505C466.479 35.505 480.495 50.169 480.495 68.001C480.495 82.353 473.389 107.497 462.839 125.384C459.847 130.458 456.608 134.939 453.023 138.072C451.659 139.244 450.503 140.506 448.999 140.506C447.476 140.506 446.323 139.244 444.976 138.072C441.37 134.939 438.132 130.459 435.14 125.384C424.589 107.497 417.499 82.353 417.499 68.001C417.499 50.169 431.499 35.505 448.999 35.505H448.995ZM221.355 94.044C212.062 96.7198 206.707 106.415 209.367 115.692C212.043 124.985 221.758 130.356 231.031 127.68C241.515 124.668 252.242 122.711 262.531 121.504C272.121 120.383 279 111.688 277.879 102.098C276.758 92.5084 268.043 85.6292 258.453 86.7502C246.324 88.1682 233.707 90.4963 221.351 94.0471L221.355 94.044ZM324.255 121.817C333.321 125.106 343.384 120.419 346.673 111.333C349.982 102.267 345.29 92.204 336.208 88.915C327.126 85.6064 317.079 90.2978 313.774 99.38C310.485 108.462 315.172 118.509 324.258 121.814L324.255 121.817ZM449.045 53.008C458.705 53.008 466.545 60.8478 466.545 70.508C466.545 80.1682 458.705 88.008 449.045 88.008C439.385 88.008 431.545 80.1682 431.545 70.508C431.545 60.8478 439.385 53.008 449.045 53.008Z" fill="#70966C"/>
</svg>
